<?xml version="1.0" standalone="no"?>
<!DOCTYPE svg PUBLIC "-//W3C//DTD SVG 20010904//EN"
 "http://www.w3.org/TR/2001/REC-SVG-20010904/DTD/svg10.dtd">
<svg version="1.0" xmlns="http://www.w3.org/2000/svg"
 width="512.000000pt" height="512.000000pt" viewBox="0 0 512.000000 512.000000"
 preserveAspectRatio="xMidYMid meet">
<metadata>
Created by potrace 1.14, written by Peter Selinger 2001-2017
</metadata>
<g transform="translate(0.000000,512.000000) scale(0.100000,-0.100000)"
fill="#000000" stroke="none">
<path d="M4216 5096 c-15 -11 -28 -32 -31 -46 -2 -14 -6 -42 -9 -63 -9 -57
-41 -111 -88 -149 -51 -41 -86 -55 -153 -63 -65 -8 -98 -41 -92 -93 7 -46 33
-69 87 -77 105 -14 163 -48 211 -123 15 -24 31 -65 35 -91 11 -79 13 -85 33
-105 27 -26 86 -26 112 1 13 13 26 48 35 93 24 128 113 212 238 224 130 13
131 155 1 172 -100 12 -166 54 -208 133 -26 47 -33 72 -36 128 -3 61 -87 98
-135 59z m93 -448 l-40 -41 -43 42 -43 42 41 42 41 42 42 -43 42 -44 -40 -40z"/>
<path d="M2099 4836 c-147 -60 -229 -192 -216 -347 10 -118 78 -218 187 -275
49 -26 65 -29 150 -29 81 0 103 4 145 25 64 31 126 94 161 162 25 46 28 65 29
143 0 77 -4 98 -26 146 -56 120 -164 190 -298 195 -61 3 -87 -1 -132 -20z
m201 -169 c51 -27 90 -90 90 -145 0 -56 -36 -119 -84 -147 -83 -48 -184 -22
-232 61 -86 146 76 311 226 231z"/>
<path d="M3072 4605 l2 -85 83 0 c48 0 83 4 84 10 0 6 1 39 1 75 0 36 -1 70
-1 75 -1 6 -37 10 -86 10 l-85 0 2 -85z"/>
<path d="M1097 4259 c-169 -17 -290 -51 -427 -118 -158 -78 -284 -177 -391
-308 -142 -171 -224 -349 -263 -568 -14 -78 -15 -327 -2 -385 3 -14 11 -50 17
-80 68 -330 333 -659 652 -809 290 -135 576 -150 913 -46 18 5 23 1 28 -22 4
-15 24 -68 43 -117 33 -80 34 -89 19 -98 -9 -5 -42 -31 -74 -57 -164 -137
-268 -319 -317 -556 -11 -52 -13 -227 -4 -290 47 -312 239 -573 524 -710 123
-60 233 -86 375 -91 103 -3 144 1 244 21 57 12 170 55 234 91 218 119 364 301
455 565 4 12 15 14 63 9 84 -9 298 -4 390 10 298 45 586 161 809 329 284 212
484 472 610 790 91 229 124 424 120 691 -6 346 -95 643 -280 930 -329 511
-885 817 -1495 823 -74 0 -260 -12 -270 -18 -3 -1 -26 -6 -51 -9 -252 -34
-598 -192 -817 -375 l-64 -53 -92 94 c-149 151 -325 257 -520 313 -105 30
-121 33 -206 41 -119 10 -144 10 -223 3z m211 -174 c218 -18 469 -143 630
-314 81 -85 80 -79 10 -162 -70 -84 -168 -232 -217 -329 -72 -141 -145 -363
-167 -504 -3 -21 -8 -48 -11 -60 -10 -37 -12 -399 -3 -456 24 -153 25 -138
-12 -153 -43 -18 -136 -40 -218 -52 -63 -10 -214 -7 -285 5 -285 48 -532 206
-689 444 -214 321 -228 744 -35 1077 169 293 473 484 804 506 50 3 92 7 93 9
2 1 9 1 15 -1 7 -2 45 -6 85 -10z m2083 4 c487 -11 962 -267 1254 -674 135
-187 250 -463 280 -670 3 -23 8 -52 11 -65 3 -14 7 -92 9 -175 3 -160 -10
-277 -46 -425 -143 -575 -598 -1032 -1169 -1175 -90 -22 -123 -28 -215 -41
-52 -7 -257 -11 -315 -6 l-45 4 -2 107 c-3 198 -64 372 -190 539 -170 224
-442 362 -723 365 -129 1 -182 -6 -285 -38 -44 -13 -86 -25 -92 -25 -7 0 -19
16 -28 36 -26 62 -74 208 -80 243 -3 19 -8 37 -10 40 -2 4 -6 24 -9 46 -3 22
-10 69 -15 105 -10 65 -8 373 2 420 3 14 8 43 12 65 14 98 67 263 119 379 31
67 107 205 128 231 4 5 29 39 55 75 26 36 95 112 153 170 213 212 471 358 752
424 126 30 150 34 258 42 47 4 87 8 89 10 2 2 7 2 10 -1 4 -2 45 -5 92 -6z
m-991 -2405 c426 -105 674 -537 554 -964 -55 -196 -210 -379 -399 -470 -109
-53 -191 -72 -315 -76 -171 -4 -310 36 -451 132 -255 172 -382 485 -319 787
56 266 242 478 500 569 128 46 298 54 430 22z"/>
<path d="M1137 3924 c-1 -2 -23 -4 -47 -5 -67 -2 -197 -36 -267 -68 -228 -107
-373 -292 -442 -564 -26 -99 -32 -144 -37 -279 l-5 -117 63 5 c35 3 72 7 83 9
11 2 22 4 25 4 3 1 5 36 5 79 1 166 33 304 101 440 37 74 60 105 115 156 110
102 255 161 411 169 l53 2 1 83 c0 45 -2 82 -5 83 -29 4 -51 5 -54 3z"/>
<path d="M1029 2883 c-4 -61 -4 -130 -1 -140 3 -9 29 -13 87 -13 l82 0 -1 85
0 85 -83 0 c-72 0 -83 -2 -84 -17z"/>
<path d="M3413 3841 c0 -45 3 -83 6 -85 3 -2 34 -7 69 -10 476 -48 877 -371
1035 -836 37 -109 74 -266 81 -345 1 -6 25 -9 56 -8 69 2 122 12 116 21 -2 4
-6 30 -10 59 -22 189 -116 454 -220 623 -227 368 -632 618 -1064 656 l-68 6
-1 -81z"/>
<path d="M3015 3555 c-14 -13 -25 -34 -26 -47 -4 -118 -66 -211 -166 -248 -30
-11 -60 -19 -66 -18 -27 4 -78 -15 -92 -35 -20 -29 -19 -80 3 -107 14 -17 35
-25 82 -32 143 -19 234 -120 239 -266 1 -36 44 -72 85 -72 44 0 86 46 86 94 0
52 29 123 65 161 45 46 100 72 175 84 39 6 67 17 76 28 25 32 28 64 9 99 -18
33 -26 37 -109 49 -115 16 -195 101 -215 227 -8 48 -17 69 -36 86 -35 29 -79
29 -110 -3z m101 -441 l-41 -42 -43 41 -42 41 41 42 42 43 42 -41 43 -42 -42
-42z"/>
<path d="M4058 2804 c-28 -15 -43 -47 -52 -112 -14 -95 -86 -179 -176 -206
-29 -9 -55 -15 -58 -15 -50 7 -102 -34 -102 -80 0 -40 39 -84 77 -87 121 -8
204 -65 247 -167 8 -21 15 -40 16 -42 0 -3 0 -20 0 -39 0 -45 35 -85 78 -92
26 -4 38 0 62 25 17 16 30 40 31 53 5 137 91 235 228 257 86 14 111 34 111 89
0 36 -36 81 -67 83 -98 4 -168 37 -218 103 -29 38 -55 112 -55 156 0 58 -71
101 -122 74z m81 -376 l39 -43 -40 -41 -40 -40 -43 40 -43 41 41 43 c23 23 42
42 44 42 1 0 20 -19 42 -42z"/>
<path d="M3421 1530 c-4 -3 -7 -41 -7 -85 l1 -80 82 -1 c51 0 83 3 86 10 3 10
2 105 -2 146 -1 12 -16 15 -77 15 -41 0 -79 -2 -83 -5z"/>
<path d="M1029 1615 c-1 -3 -2 -41 -3 -85 l-1 -81 85 3 85 3 1 83 2 82 -84 0
c-46 0 -84 -2 -85 -5z"/>
<path d="M653 1355 c-39 -16 -49 -35 -56 -104 -14 -118 -107 -210 -231 -226
-27 -3 -57 -10 -67 -16 -42 -22 -51 -81 -19 -122 19 -24 38 -31 110 -40 108
-14 210 -133 210 -245 0 -50 49 -97 93 -88 40 7 77 48 77 84 0 125 98 232 228
250 76 11 112 39 112 89 0 40 -37 82 -72 84 -87 4 -155 35 -204 93 -36 42 -64
112 -64 161 0 64 -59 104 -117 80z m74 -460 l-42 -41 -42 41 -41 40 41 43 41
42 43 -42 42 -41 -42 -42z"/>
<path d="M4694 924 c-176 -62 -226 -290 -92 -424 160 -160 434 -37 429 193 -2
90 -67 188 -147 222 -52 22 -140 26 -190 9z m116 -164 c22 0 50 -46 50 -81 0
-99 -141 -106 -164 -9 -12 49 44 107 92 94 8 -2 18 -4 22 -4z"/>
<path d="M175 420 c-1 -3 -2 -41 -1 -85 l1 -80 85 0 85 0 1 75 c0 41 -1 80 -3
86 -4 10 -162 15 -168 4z"/>
<path d="M3933 421 c-5 -3 -8 -33 -7 -66 3 -112 -7 -101 87 -100 l83 0 -2 80
c-1 44 -2 83 -3 86 -1 8 -147 8 -158 0z"/>
</g>
</svg>
